<svg xmlns="http://www.w3.org/2000/svg" fill="none" viewBox="0 0 512 512">
    <path fill="url(#background)" d="M0 0h512v512H0z" />
    <path fill="url(#foreground)"
        d="M432.24 143.12c7.31 0 15.57-.12 24.77-.35 9.43-.47 17.45-1.06 24.06-1.77.7.94 1.06 3.07 1.06 6.37.24 3.07-.12 5.19-1.06 6.37a66 66 0 0 0-7.43.7c-3.3.24-6.49.83-9.56 1.78-2.83.7-4.6 1.88-5.3 3.53-1.18 3.07-1.9 6.96-2.13 11.68a329.9 329.9 0 0 0-.35 16.28v136.23c0 6.13.12 11.56.35 16.27.24 4.72.95 8.62 2.13 11.68.7 1.42 2.47 2.6 5.3 3.54a62.6 62.6 0 0 0 9.56 2.12c3.54.24 6.01.48 7.43.71.94 1.18 1.3 3.3 1.06 6.37 0 3.07-.35 5.2-1.06 6.37-6.6-.7-14.75-1.3-24.42-1.77-9.43-.47-17.8-.7-25.12-.7-7.31 0-15.57.23-24.77.7s-17.22 1.06-24.06 1.77c-.7-1.18-1.18-3.3-1.42-6.37 0-3.07.48-5.19 1.42-6.37 1.65-.23 4.13-.47 7.43-.7 3.3-.48 6.49-1.19 9.55-2.13 3.07-.94 4.84-2.12 5.31-3.54 1.42-3.54 2.24-8.02 2.48-13.44.23-5.43.35-11.8.35-19.11V192.3a442 442 0 0 0-.35-19.11c-.24-5.43-1.06-9.9-2.48-13.45-.47-1.65-2.24-2.83-5.3-3.53a42.76 42.76 0 0 0-9.56-1.77c-3.3-.48-5.78-.71-7.43-.71-.94-1.18-1.42-3.3-1.42-6.37.24-3.3.71-5.43 1.42-6.37 6.84.7 14.98 1.3 24.41 1.77 9.44.23 17.81.35 25.13.35Zm-349.16-.35c5.9 0 11.67-.24 17.34-.7 5.9-.48 12.26-.83 19.1-1.07 2.6 5.43 6.14 13.33 10.62 23.7 4.72 10.39 10.02 22.3 15.92 35.75 5.9 13.44 12.15 27.71 18.75 42.81 6.85 14.86 13.45 29.6 19.82 44.23l.36.36c.47.23.82.35 1.06.35.23 0 .47-.24.7-.7.48-.71.71-1.19.71-1.42l4.25-10.26a4019.9 4019.9 0 0 0 10.61-26.9 2287 2287 0 0 0 13.1-34.32c4.71-12.03 8.96-23.24 12.73-33.61a189.28 189.28 0 0 0 5.31-16.28 412.18 412.18 0 0 0 4.6-15.93l1.77-6.72c1.18 0 4.25.12 9.2.35 5.2.24 10.62.48 16.28.71h11.68c5.9 0 12.38-.23 19.46-.7 7.07-.71 14.03-1.18 20.87-1.42.71.7 1.3 2.71 1.77 6.01.71 3.3.6 5.67-.35 7.08-1.42 0-4.37.36-8.85 1.06-4.24.48-7.31 1.3-9.2 2.48a12.32 12.32 0 0 0-3.89 4.6c-.7 1.65-.94 4.84-.7 9.56.23 5.9.46 14.74.7 26.53.47 11.56.94 24.42 1.41 38.57l1.42 42.46c.47 14.16.94 26.78 1.42 37.86.47 6.61.94 12.98 1.41 19.11a58.56 58.56 0 0 0 3.19 15.57c.7 1.65 2.6 2.95 5.66 3.9 3.3.94 6.6 1.65 9.9 2.12 3.3.23 5.43.35 6.38.35a16.94 16.94 0 0 1 .7 12.74c-6.84-.47-14.5-1.06-23-1.77a290.3 290.3 0 0 0-24.06-1.06c-8.02 0-17.1.35-27.25 1.06-10.14.7-19.22 1.3-27.24 1.77-.7-.7-1.18-2.6-1.42-5.66 0-3.3.24-5.66.71-7.08a66 66 0 0 0 7.43-.7 71.98 71.98 0 0 0 10.26-2.13c3.54-.94 5.78-2.24 6.73-3.9a15.7 15.7 0 0 0 2.12-5.65c.47-2.6.7-4.72.7-6.37v-9.56c0-4.71-.11-8.6-.35-11.67l-3.53-120.31c0-.47-.12-2.12-.36-4.96-.24-2.82-.94-4.24-2.12-4.24-.47 0-1.06.82-1.77 2.48l-60.86 164.54c-.24.94-1.18 2.59-2.83 4.95a50.35 50.35 0 0 1-5.66 6.72c-2.13 1.89-4.25 2.83-6.38 2.83-.7 0-1.76-.23-3.18-.7L89.45 188.76c-.48 14.39-.95 26.66-1.42 36.8a3572.33 3572.33 0 0 1-1.41 47.42c-.24 6.84-.48 14.27-.71 22.29-.24 7.78-.6 17.1-1.06 27.95a99.8 99.8 0 0 0 .35 14.15c.47 5.43.83 8.73 1.06 9.91.47 1.89 2.12 3.54 4.96 4.96a50.33 50.33 0 0 0 9.55 3.54c3.77.7 7.08 1.3 9.9 1.76 3.07.48 4.96.71 5.67.71.47 1.18.82 3.19 1.06 6.02.24 2.6.12 4.83-.35 6.72-6.84-.47-13.8-1.06-20.88-1.77-7.08-.7-14.4-1.06-21.94-1.06-8.02 0-15.21.35-21.58 1.06-6.37.7-13.57 1.3-21.59 1.77-.7-1.18-1.06-3.07-1.06-5.66 0-2.83.24-5.07.7-6.72 1.42 0 4.25-.36 8.5-1.07a67.3 67.3 0 0 0 12.74-4.24c4.24-1.89 6.96-4.25 8.14-7.08.47-1.18.94-3.77 1.41-7.78.71-4.25 1.3-8.61 1.77-13.1.47-4.48.7-7.66.7-9.55.48-8.02.95-17.7 1.42-29.01.48-11.33.95-23.12 1.42-35.39s.94-24.06 1.42-35.39c.47-11.32.82-21.1 1.06-29.36.23-8.5.47-14.4.7-17.7 0-1.18-.11-2.47-.35-3.89a6.1 6.1 0 0 0-1.41-3.9c-1.42-1.88-4.72-3.53-9.91-4.94-5.2-1.66-9.32-2.48-12.39-2.48-.94-1.42-1.3-3.78-1.06-7.08.47-3.54.83-5.42 1.06-5.66 5.43.24 9.8.47 13.1.7l10.61.72a225 225 0 0 0 13.45.35Z" />


    <defs>
        <linearGradient id="foreground" x1="100%" x2="100%" y1="100%" y2="100%" gradientUnits="userSpaceOnUse">
            <stop offset="1" stop-color="#000" stop-opacity="0" />
            <stop stop-color="#000" />
        </linearGradient>
        <linearGradient id="background" x1="100%" x2="100%" y1="100%" y2="100%" gradientUnits="userSpaceOnUse">
            <stop offset="1" stop-color="#fff" stop-opacity="0" />
            <stop stop-color="#fff" />
        </linearGradient>
    </defs>
    <style>
        @media (prefers-color-scheme:dark) {
            :root {
                filter: invert(100%)
            }
        }
    </style>
</svg>
