<svg xmlns="http://www.w3.org/2000/svg" fill="none" viewBox="0 0 512 512">
    <rect width="512" height="512" fill="url(#background)" />
    <path fill="url(#foreground)"
        d="M347.286 26.958c-21.563-6.451-37.668 21.119-44.047 39.486A3911.553 3911.553 0 0 0 244.4 250.272c-15.392 47.715-25.092 85.895-39.508 133.883-5.144 16.129-14.15 42.156-17.887 58.858-10.431 44.293 25.234 56.91 49.52 25.8 6.514-10.237 11.616-21.513 15.129-33.441 42.048-117.501 65.555-241.836 106.682-359.669 5.236-15.01 7.061-43.315-11.054-48.737l.004-.008Zm119.671 218.066c-12.549-18.584-61.322-85.767-77.899-94.004-5.055-2.514-18.809-10.567-27.516 4.564-11.004 19.121-6.507 40.053 8.177 62.311 12.189 18.48 25.63 35.882 38.969 53.22 4.993 6.486 4.877 7.537.229 14.183-19.224 27.467-47.692 41.546-69.355 67.438l-.004-.004c-3.722 4.759-5.674 10.925-5.461 17.237.209 6.313 2.572 12.297 6.604 16.731 4.028 4.431 9.42 6.98 15.074 7.118 19.847 1.289 31.842-8.593 48.195-20.95 17.422-13.167 65.498-54.09 73.089-64.998 17.403-23.551 6.887-39.941-10.102-62.846Zm-294.176 87.557c-100.375-86.679-86.978-42.291 2.405-145.037 10.497-12.709 13.305-29.803-2.157-40.058-5.128-4.353-11.423-6.642-17.864-6.49-6.437.156-12.638 2.739-17.596 7.334-30.502 25.921-59.42 54.098-86.556 84.334-8.095 10.138-25.401 28.029-25.006 41.36.399 20.003 13.215 32.892 34.623 49.421 23.91 18.462 47.967 32.982 73.093 49.42 15.954 10.436 39.162 24.035 49.248.567 9.552-22.222-1.34-32.381-10.19-40.854v.003Z" />

    <defs>
        <linearGradient id="background" x1="100%" x2="100%" y1="100%" y2="100%" gradientUnits="userSpaceOnUse">
            <stop offset="1" stop-color="#000" stop-opacity="0" />
            <stop stop-color="#000" />
        </linearGradient>
        <linearGradient id="foreground" x1="100%" x2="100%" y1="100%" y2="100%" gradientUnits="userSpaceOnUse">
            <stop offset="1" stop-color="#fff" stop-opacity="0" />
            <stop stop-color="#fff" />
        </linearGradient>
    </defs>
    <style>
        @media (prefers-color-scheme:dark) {
            :root {
                filter: invert(100%)
            }
        }
    </style>
</svg>