<svg xmlns="http://www.w3.org/2000/svg" fill="none" viewBox="0 0 512 512">
  <path fill="#000" d="M0 0h512v512H0z" />
  <path fill="#F3FFF1"
    d="M101.575 150.073c3.936 0 9.637-.252 17.105-.757 7.467-.605 12.361-.959 14.682-1.06 14.834 32.797 33.907 75.583 57.217 128.36.606.403 1.009.605 1.211.605.101 0 .303-.252.606-.757.403-.504.605-.857.605-1.059 15.137-37.136 27.044-67.813 35.723-92.031 1.412-3.835 2.926-8.578 4.541-14.229a1058.251 1058.251 0 0 0 3.935-14.077l1.514-5.601c5.449.606 16.348.909 32.695.909 3.936 0 10.192-.303 18.77-.909 8.678-.706 14.228-1.11 16.65-1.211.706.707 1.261 2.473 1.665 5.298.404 2.826.252 4.895-.454 6.206-1.816 0-4.591.354-8.325 1.06-3.633.605-6.105 1.362-7.417 2.27-1.716 1.211-2.876 2.624-3.482 4.239-.605 1.614-.857 4.339-.756 8.174.201 4.339.807 22.906 1.816 55.703 1.11 32.796 2.018 56.611 2.725 71.445 0 .404.05 1.665.151 3.784.101 2.119.151 3.482.151 4.087.101.505.202 1.665.303 3.482.101 1.816.202 3.077.303 3.784.101.605.202 1.665.303 3.178.201 1.514.353 2.675.454 3.482.201.807.403 1.816.605 3.027.202 1.211.454 2.271.757 3.179.303.908.605 1.766.908 2.573.807 1.817 3.532 3.179 8.174 4.087 4.642.908 8.275 1.362 10.898 1.362.606 1.413.959 3.28 1.06 5.601.101 2.22-.05 4.087-.454 5.601-1.716-.101-7.72-.505-18.013-1.211-10.192-.808-17.912-1.211-23.159-1.211-5.449 0-14.229.403-26.338 1.211-12.109.706-19.173 1.11-21.191 1.211-.606-.606-1.009-2.321-1.211-5.147-.101-2.825.101-4.844.605-6.055 3.028 0 7.014-.504 11.958-1.513 4.945-1.009 8.023-2.422 9.234-4.239 1.614-2.623 2.422-6.155 2.422-10.595 0-8.679-.101-14.834-.303-18.467l-3.028-105.654c0-5.248-.706-7.871-2.119-7.871-.403 0-.908.706-1.513 2.119l-53.282 144.101c-.706 2.018-2.472 4.642-5.297 7.871-2.725 3.23-5.298 4.844-7.72 4.844-.606 0-1.514-.202-2.725-.605l-67.51-158.33c-.504 16.044-1.009 31.333-1.513 45.864-.404 14.531-.808 26.64-1.211 36.328-.303 9.687-.707 21.545-1.211 35.571-.101 3.128 0 7.114.303 11.958.302 4.844.605 7.821.908 8.931.807 2.725 4.692 5.045 11.655 6.963 6.963 1.816 11.857 2.724 14.683 2.724.504 1.11.807 2.876.908 5.298.202 2.321.101 4.289-.303 5.904-2.321-.101-7.871-.505-16.65-1.211-8.78-.808-15.742-1.211-20.889-1.211-5.247 0-12.008.353-20.283 1.059-8.174.707-14.027 1.161-17.559 1.363-.605-1.01-.958-2.675-1.06-4.996 0-2.421.253-4.389.758-5.903 3.33 0 8.072-.959 14.228-2.876 6.257-1.917 10.091-4.591 11.504-8.022.504-1.312 1.16-5.298 1.968-11.958.908-6.66 1.463-11.555 1.665-14.683.504-10.394 1.11-25.076 1.816-44.048a6968.693 6968.693 0 0 0 2.12-54.643c.706-17.458 1.11-27.448 1.21-29.971 0-3.027-.504-5.247-1.513-6.66-1.11-1.514-3.986-2.977-8.628-4.39-4.541-1.514-8.225-2.27-11.05-2.27-.807-1.312-1.11-3.381-.908-6.206.202-2.927.504-4.592.908-4.996 3.33.101 8.275.455 14.834 1.06 6.66.505 12.614.757 17.861.757Zm306.579.303c14.632 0 28.861-.707 42.686-2.12.605.909.908 2.725.908 5.45.101 2.724-.202 4.642-.908 5.752-11.908.908-18.366 2.724-19.375 5.449-1.615 4.036-2.422 13.522-2.422 28.457V304.77c0 14.935.807 24.421 2.422 28.457 1.009 2.725 7.467 4.541 19.375 5.449.706 1.11 1.009 3.028.908 5.752 0 2.725-.303 4.541-.908 5.45-13.825-1.413-28.255-2.12-43.291-2.12-14.632 0-28.861.707-42.686 2.12-.605-.909-.958-2.725-1.059-5.45 0-2.724.353-4.642 1.059-5.752 11.908-.908 18.366-2.724 19.375-5.449 1.615-4.036 2.422-13.522 2.422-28.457V193.364c0-14.935-.807-24.421-2.422-28.457-1.009-2.725-7.467-4.541-19.375-5.449-.706-1.11-1.059-3.028-1.059-5.752.101-2.725.454-4.541 1.059-5.45 13.825 1.413 28.255 2.12 43.291 2.12Z" />
</svg>